<svg width="24" height="23" viewBox="0 0 24 23" fill="none" xmlns="http://www.w3.org/2000/svg">
<path d="M17.096 10.6653L8.82297 5.70363C8.08028 5.29556 7.14487 5.81956 7.14487 6.67742V16.3226C7.14487 17.1758 8.07558 17.7044 8.82297 17.2964L17.096 12.6129C17.8669 12.1909 17.8669 11.0919 17.096 10.6653ZM23.3148 11.5C23.3148 5.14718 18.0972 0 11.6574 0C5.21763 0 0 5.14718 0 11.5C0 17.8528 5.21763 23 11.6574 23C18.0972 23 23.3148 17.8528 23.3148 11.5ZM2.25627 11.5C2.25627 6.37601 6.46328 2.22581 11.6574 2.22581C16.8515 2.22581 21.0586 6.37601 21.0586 11.5C21.0586 16.624 16.8515 20.7742 11.6574 20.7742C6.46328 20.7742 2.25627 16.624 2.25627 11.5Z" fill="white"/>
</svg>
