<svg width="25" height="21" viewBox="0 0 25 21" fill="none" xmlns="http://www.w3.org/2000/svg">
<path d="M4.6875 3C4.6875 1.34531 6.08887 0 7.8125 0H21.875C23.5986 0 25 1.34531 25 3V18C25 19.6547 23.5986 21 21.875 21H3.90625C1.74805 21 0 19.3219 0 17.25V4.5C0 3.67031 0.698242 3 1.5625 3C2.42676 3 3.125 3.67031 3.125 4.5V17.25C3.125 17.6625 3.47656 18 3.90625 18C4.33594 18 4.6875 17.6625 4.6875 17.25V3ZM7.8125 4.125V7.875C7.8125 8.49844 8.33496 9 8.98438 9H14.4531C15.1025 9 15.625 8.49844 15.625 7.875V4.125C15.625 3.50156 15.1025 3 14.4531 3H8.98438C8.33496 3 7.8125 3.50156 7.8125 4.125ZM17.9688 3.75C17.9688 4.1625 18.3203 4.5 18.75 4.5H21.0938C21.5234 4.5 21.875 4.1625 21.875 3.75C21.875 3.3375 21.5234 3 21.0938 3H18.75C18.3203 3 17.9688 3.3375 17.9688 3.75ZM17.9688 8.25C17.9688 8.6625 18.3203 9 18.75 9H21.0938C21.5234 9 21.875 8.6625 21.875 8.25C21.875 7.8375 21.5234 7.5 21.0938 7.5H18.75C18.3203 7.5 17.9688 7.8375 17.9688 8.25ZM7.8125 12.75C7.8125 13.1625 8.16406 13.5 8.59375 13.5H21.0938C21.5234 13.5 21.875 13.1625 21.875 12.75C21.875 12.3375 21.5234 12 21.0938 12H8.59375C8.16406 12 7.8125 12.3375 7.8125 12.75ZM7.8125 17.25C7.8125 17.6625 8.16406 18 8.59375 18H21.0938C21.5234 18 21.875 17.6625 21.875 17.25C21.875 16.8375 21.5234 16.5 21.0938 16.5H8.59375C8.16406 16.5 7.8125 16.8375 7.8125 17.25Z" fill="white"/>
</svg>
