<svg width="21" height="22" viewBox="0 0 21 22" fill="none" xmlns="http://www.w3.org/2000/svg">
<path fill-rule="evenodd" clip-rule="evenodd" d="M18.552 15.2247L18.5249 15.1908L18.1269 14.7083L17.9495 14.491L17.8909 14.4181C17.8728 14.3951 17.8549 14.3724 17.8373 14.3498L17.7855 14.2826C17.7515 14.2382 17.7187 14.1944 17.687 14.1511L17.6401 14.0865C17.3026 13.6154 17.0919 13.1978 16.9258 12.6517L16.9095 12.5971L16.9014 12.5695L16.8857 12.5136L16.8702 12.4569L16.8552 12.3993L16.8404 12.3409L16.8261 12.2815L16.819 12.2515L16.8052 12.1909L16.7917 12.1293L16.7786 12.0668L16.7722 12.0352L16.7596 11.9713L16.7473 11.9064L16.7355 11.8406L16.7297 11.8073L16.7183 11.74L16.7128 11.706L16.702 11.6372L16.6915 11.5674L16.6814 11.4965L16.6717 11.4247L16.6623 11.3518L16.6533 11.2778L16.6447 11.2028L16.6364 11.1267L16.6324 11.0882L16.6246 11.0104L16.6209 10.9711L16.6136 10.8917L16.6068 10.8111L16.6003 10.7294L16.5941 10.6465L16.5883 10.5625L16.5829 10.4773L16.5803 10.4342L16.5755 10.3472L16.5709 10.259L16.5668 10.1696L16.5648 10.1244L16.5612 10.0331L16.5579 9.94061L16.5565 9.89388L16.5537 9.79945L16.5514 9.70375L16.5494 9.60676L16.5478 9.50846L16.5465 9.40885L16.5456 9.30791L16.545 9.20564L16.5449 9.10201C16.5449 7.13495 16.0702 5.59785 15.1805 4.43681C14.4674 3.50631 13.5549 2.882 12.421 2.41631C12.4159 2.4142 12.401 2.40385 12.388 2.39038L12.3821 2.3838L12.3808 2.38227C11.9716 1.01869 10.8427 0 9.46317 0C8.08998 0 6.96469 1.01 6.55335 2.36528L6.54767 2.38435L6.54247 2.39005C6.52997 2.40298 6.51473 2.41346 6.50831 2.41609C5.37188 2.88297 4.46039 3.50584 3.74764 4.43561C2.86704 5.58435 2.39347 7.10235 2.38409 9.04307L2.38371 9.20561L2.3831 9.30786L2.38214 9.40877L2.38081 9.50836L2.37912 9.60664L2.37708 9.70361L2.37467 9.79929L2.3719 9.8937L2.36876 9.98684L2.36527 10.0787L2.36142 10.1694L2.35721 10.2588L2.35497 10.303L2.35022 10.3906L2.34511 10.477L2.34242 10.5198L2.33677 10.6044L2.33076 10.6878L2.32439 10.7701L2.31767 10.8512L2.31058 10.9312L2.30314 11.0101L2.29534 11.0879L2.28718 11.1645L2.27866 11.2401L2.26979 11.3146L2.26055 11.388L2.25096 11.4604L2.24102 11.5317L2.23071 11.6021L2.22005 11.6714L2.21459 11.7056L2.2034 11.7734L2.19185 11.8402L2.17994 11.9061L2.16768 11.9709L2.16141 12.003L2.14862 12.0664L2.14209 12.0978L2.12876 12.1599L2.11507 12.221L2.10103 12.2812L2.09388 12.311L2.07931 12.3699L2.07189 12.399L2.05679 12.4566L2.04133 12.5133L2.02552 12.5692L2.01748 12.5968L2.00114 12.6515C1.80833 13.2845 1.55576 13.7449 1.11518 14.3161L1.06247 14.3838L1.02333 14.4333L0.916325 14.5655L0.402722 15.1892C-0.560206 16.3647 0.313214 18.0714 1.86366 18.0714H5.52535L5.52587 18.1364C5.56065 20.2761 7.31012 22 9.46317 22C11.638 22 13.401 20.2411 13.401 18.0714H17.0676C18.5984 18.0714 19.4653 16.3954 18.552 15.2247ZM12.6134 16.5H17.0676C17.31 16.5 17.4069 16.3094 17.3039 16.1834L16.9385 15.7407L16.7568 15.5185L16.6748 15.4171L16.6237 15.3526C16.0388 14.6073 15.6811 13.9712 15.4185 13.1081L15.3989 13.0425C15.3925 13.0205 15.3861 12.9984 15.3798 12.9762L15.3611 12.9091L15.3428 12.8412C15.3218 12.7615 15.3017 12.6801 15.2825 12.5971L15.2662 12.5254C15.2609 12.5014 15.2556 12.4773 15.2504 12.4529L15.235 12.3796C15.23 12.355 15.225 12.3302 15.2201 12.3053L15.2057 12.2302L15.1986 12.1922L15.1848 12.1157L15.178 12.0771L15.1649 11.9991L15.1522 11.9202L15.1399 11.8404L15.1339 11.8001L15.1223 11.7187L15.1111 11.6364L15.1056 11.5948L15.0951 11.511L15.085 11.4261L15.0801 11.3832L15.0706 11.2967L15.0616 11.2092L15.053 11.1206L15.0448 11.0309L15.0371 10.9401L15.0298 10.8482L15.0263 10.8018L15.0196 10.7081L15.0133 10.6134L15.0075 10.5174L15.0021 10.4203L14.9971 10.322L14.9948 10.2724L14.9904 10.1723L14.9865 10.071L14.9846 10.0199L14.9813 9.9167L14.9784 9.81226L14.9771 9.75957L14.9749 9.65324L14.973 9.54561L14.9716 9.43669L14.9705 9.32646L14.9699 9.2149L14.9696 9.05306C14.9623 7.44208 14.5922 6.25648 13.9292 5.39124C13.4058 4.70826 12.7178 4.23759 11.8219 3.86963L11.8004 3.86064C11.3721 3.67749 11.0092 3.29475 10.8758 2.84627C10.6532 2.09026 10.0815 1.57143 9.46317 1.57143C8.84486 1.57143 8.27343 2.09065 8.05306 2.84702L8.04625 2.86945C7.9063 3.31693 7.53888 3.69257 7.10749 3.86938L7.06552 3.88676C6.1874 4.2533 5.51353 4.71878 4.99881 5.39024C4.32952 6.26333 3.95908 7.46411 3.95908 9.10246L3.95899 9.15907L3.95852 9.27129L3.95763 9.38218L3.95633 9.49175L3.95462 9.60002L3.9525 9.70699L3.94996 9.81269L3.94701 9.91712L3.94364 10.0203L3.93985 10.1222L3.9378 10.1727L3.93339 10.2728L3.92855 10.3717L3.9233 10.4694L3.92051 10.5178L3.91463 10.6138L3.90832 10.7085L3.90159 10.8022L3.89806 10.8485L3.89069 10.9405L3.8829 11.0313L3.87468 11.121L3.86603 11.2096L3.85695 11.2971L3.84744 11.3836L3.83751 11.469L3.82714 11.5534L3.81634 11.6367L3.81078 11.678L3.79933 11.7599L3.78744 11.8407L3.78134 11.8807L3.7688 11.9601L3.75583 12.0385L3.74242 12.116L3.72857 12.1926L3.72148 12.2305L3.70697 12.3056L3.69202 12.3799L3.68438 12.4167L3.66877 12.4896L3.6608 12.5257L3.64452 12.5974C3.62802 12.6686 3.61086 12.7385 3.59302 12.8072L3.57496 12.8755L3.56577 12.9094L3.54703 12.9765L3.5375 13.0097L3.5181 13.0757L3.50822 13.1084C3.24074 13.9865 2.87502 14.6296 2.27163 15.3919L2.25834 15.4086L2.17717 15.5092L1.90561 15.8407L1.61712 16.1903C1.52306 16.3154 1.61554 16.4935 1.85069 16.4998L1.86366 16.5H6.31291H12.6134ZM7.10048 18.0714C7.10048 19.3732 8.15829 20.4286 9.46317 20.4286C10.755 20.4286 11.8047 19.3942 11.8255 18.1104L11.8259 18.0714H7.10048Z" fill="#141E28"/>
<circle cx="16" cy="5" r="5" fill="#ED2424"/>
</svg>
