<svg width="103" height="34" viewBox="0 0 103 34" fill="none" xmlns="http://www.w3.org/2000/svg">
<path d="M16.7 12.8774V17.1014H10.028V19.4534H14.828V23.4614H10.028V29.8694H4.7V12.8774H16.7ZM17.7847 23.1014C17.7847 21.6774 18.0247 20.4454 18.5047 19.4054C19.0007 18.3494 19.6727 17.5494 20.5207 17.0054C21.3687 16.4454 22.3207 16.1654 23.3767 16.1654C24.2567 16.1654 25.0167 16.3494 25.6567 16.7174C26.2967 17.0694 26.7847 17.5574 27.1207 18.1814V16.3334H32.4247V29.8694H27.1207V28.0214C26.7847 28.6454 26.2967 29.1414 25.6567 29.5094C25.0167 29.8614 24.2567 30.0374 23.3767 30.0374C22.3207 30.0374 21.3687 29.7654 20.5207 29.2214C19.6727 28.6614 19.0007 27.8614 18.5047 26.8214C18.0247 25.7654 17.7847 24.5254 17.7847 23.1014ZM27.1207 23.1014C27.1207 22.3814 26.9367 21.8214 26.5687 21.4214C26.2007 21.0214 25.7287 20.8214 25.1527 20.8214C24.5767 20.8214 24.1047 21.0214 23.7367 21.4214C23.3687 21.8214 23.1847 22.3814 23.1847 23.1014C23.1847 23.8214 23.3687 24.3814 23.7367 24.7814C24.1047 25.1814 24.5767 25.3814 25.1527 25.3814C25.7287 25.3814 26.2007 25.1814 26.5687 24.7814C26.9367 24.3814 27.1207 23.8214 27.1207 23.1014ZM40.1452 18.8294C40.6892 18.0454 41.3532 17.4214 42.1372 16.9574C42.9212 16.4774 43.7372 16.2374 44.5852 16.2374V21.9254H43.0732C42.0652 21.9254 41.3212 22.1014 40.8412 22.4534C40.3772 22.8054 40.1452 23.4294 40.1452 24.3254V29.8694H34.8172V16.3334H40.1452V18.8294ZM64.0923 16.2374C65.8203 16.2374 67.1563 16.7574 68.1003 17.7974C69.0603 18.8374 69.5403 20.2454 69.5403 22.0214V29.8694H64.2363V22.6934C64.2363 22.1174 64.0603 21.6694 63.7083 21.3494C63.3723 21.0134 62.9163 20.8454 62.3403 20.8454C61.7483 20.8454 61.2843 21.0134 60.9483 21.3494C60.6123 21.6694 60.4443 22.1174 60.4443 22.6934V29.8694H55.1403V22.6934C55.1403 22.1174 54.9643 21.6694 54.6123 21.3494C54.2763 21.0134 53.8203 20.8454 53.2443 20.8454C52.6523 20.8454 52.1883 21.0134 51.8523 21.3494C51.5163 21.6694 51.3483 22.1174 51.3483 22.6934V29.8694H46.0203V16.3334H51.3483V18.1574C51.7323 17.5814 52.2523 17.1174 52.9083 16.7654C53.5803 16.4134 54.3643 16.2374 55.2603 16.2374C56.2363 16.2374 57.1003 16.4534 57.8523 16.8854C58.6043 17.3014 59.2043 17.8934 59.6523 18.6614C60.1483 17.9574 60.7803 17.3814 61.5483 16.9334C62.3163 16.4694 63.1643 16.2374 64.0923 16.2374Z" fill="#428452"/>
<path d="M76.5044 15.3014L75.6164 20.3654H81.3764L81.0164 22.4774H75.2564L74.3204 27.7334H80.8004L80.4164 29.8694H71.2004L74.1524 13.1654H83.3684L82.9844 15.3014H76.5044ZM84.0504 23.1974C84.2904 21.8694 84.7704 20.6934 85.4904 19.6694C86.2264 18.6454 87.1224 17.8534 88.1784 17.2934C89.2344 16.7174 90.3464 16.4294 91.5144 16.4294C92.3784 16.4294 93.1944 16.6214 93.9624 17.0054C94.7304 17.3734 95.3144 17.8694 95.7144 18.4934L96.8424 12.1094H99.6024L96.4584 29.8694H93.6984L94.0584 27.8774C93.4824 28.5334 92.7624 29.0694 91.8984 29.4854C91.0504 29.8854 90.1144 30.0854 89.0904 30.0854C88.0824 30.0854 87.1864 29.8614 86.4024 29.4134C85.6184 28.9654 85.0024 28.3334 84.5544 27.5174C84.1224 26.6854 83.9064 25.7334 83.9064 24.6614C83.9064 24.1814 83.9544 23.6934 84.0504 23.1974ZM94.8744 23.2454C94.9384 22.9414 94.9704 22.6134 94.9704 22.2614C94.9704 21.1894 94.6504 20.3494 94.0104 19.7414C93.3864 19.1174 92.6024 18.8054 91.6584 18.8054C90.9544 18.8054 90.2664 18.9814 89.5944 19.3334C88.9224 19.6694 88.3384 20.1734 87.8424 20.8454C87.3464 21.5014 87.0184 22.2854 86.8584 23.1974C86.7944 23.5014 86.7624 23.8294 86.7624 24.1814C86.7624 25.2694 87.0744 26.1334 87.6984 26.7734C88.3384 27.3974 89.1304 27.7094 90.0744 27.7094C90.7784 27.7094 91.4664 27.5334 92.1384 27.1814C92.8104 26.8294 93.3944 26.3174 93.8904 25.6454C94.3864 24.9574 94.7144 24.1574 94.8744 23.2454Z" fill="#13D240"/>
<path d="M91.908 2.01639C89.3338 2.01639 87.156 3.63705 86.4158 5.87136C87.5162 5.33638 88.7574 5.03743 90.074 5.03743H92.956C93.2442 5.03743 93.48 5.264 93.48 5.54093C93.48 5.81786 93.2442 6.04444 92.956 6.04444H92.432H90.074C89.5303 6.04444 89.0031 6.10423 88.4922 6.21437C87.6439 6.40004 86.8579 6.73046 86.1538 7.18047C84.2543 8.39833 83 10.4784 83 12.8418V13.3453C83 13.7638 83.3504 14.1005 83.786 14.1005C84.2216 14.1005 84.572 13.7638 84.572 13.3453V12.8418C84.572 11.3092 85.2499 9.93087 86.334 8.96477C86.9824 11.3407 89.2323 13.0935 91.908 13.0935H91.9408C96.267 13.0715 99.768 8.97421 99.768 3.92342C99.768 2.58284 99.5224 1.30834 99.077 0.159715C98.9918 -0.0574223 98.661 -0.0479816 98.5464 0.156568C97.9307 1.26428 96.7124 2.01639 95.314 2.01639H91.908Z" fill="#428452"/>
</svg>
